<svg width="50" height="50" viewBox="0 0 50 50" fill="none" xmlns="http://www.w3.org/2000/svg">
<g clip-path="url(#clip0)">
<path d="M49.4719 48.2002C41.9695 45.7053 29.972 34.2479 25.877 22.604C24.6266 19.0015 23.7326 16.5857 23.2637 14.7746C25.7645 3.83142 26.0771 3.47258 26.1896 3.11092C26.4022 2.44128 26.6585 0.898555 25.5644 0.949414C23.6388 1.04548 19.872 -1.00866 20.0064 0.647086C20.1408 2.30283 20.1002 4.19309 20.1002 4.19309C20.1002 9.56153 19.3625 18.1906 12.8604 31.4733C4.57659 48.3895 -2.45686 49.5564 0.825421 49.5564C4.1077 49.5564 18.7998 34.7226 22.2384 19.3236C22.3697 18.7246 22.5009 18.151 22.626 17.5944C24.1077 24.2061 28.3403 38.181 38.7748 46.2902C41.4069 48.3358 44.1577 49.8616 47.1149 49.9944C49.3718 50.0961 50.8411 48.6551 49.4719 48.2002Z" fill="#EEEEEE"/>
</g>
<defs>
<clipPath id="clip0">
<path d="M0 0H50V50H0V0Z" fill="white"/>
</clipPath>
</defs>
</svg>
