<svg width="140" height="140" viewBox="0 0 140 140" fill="none" xmlns="http://www.w3.org/2000/svg">
<path fill-rule="evenodd" clip-rule="evenodd" d="M38.6297 30.3678C38.6297 25.2784 44.1391 22.0976 48.5467 24.6423L120.663 66.2785C125.07 68.8232 125.07 75.1849 120.663 77.7296L48.5467 119.366C44.1391 121.91 38.6297 118.73 38.6297 113.64V30.3678ZM47.6022 26.2782L119.718 67.9143C122.866 69.732 122.866 74.2761 119.718 76.0937L47.6022 117.73C44.4539 119.548 40.5186 117.275 40.5186 113.64V30.3678C40.5186 26.7326 44.4539 24.4605 47.6022 26.2782Z" fill="#EEEEEE"/>
<path fill-rule="evenodd" clip-rule="evenodd" d="M70 140C108.66 140 140 108.66 140 70C140 31.3401 108.66 0 70 0C31.3401 0 0 31.3401 0 70C0 108.66 31.3401 140 70 140ZM138.111 70C138.111 107.617 107.617 138.111 70 138.111C32.3833 138.111 1.88895 107.617 1.88895 70C1.88895 32.3833 32.3833 1.88895 70 1.88895C107.617 1.88895 138.111 32.3833 138.111 70Z" fill="#EEEEEE"/>
</svg>
